<svg width="391" height="391" xmlns="http://www.w3.org/2000/svg" fill="none">

 <g>
  <title>Layer 1</title>
  <path stroke="null" id="svg_1" fill="black" d="m196.50062,8.60352c-3.04249,5.45058 -12.54813,15.67038 -20.91355,23.16498c-8.74549,7.1539 -15.59061,15.3298 -15.59061,17.3737c0,2.3847 4.18271,7.1539 9.50659,10.9012c11.40696,7.8352 11.78798,13.2858 2.28139,24.187c-5.70395,6.4725 -6.08403,10.9011 -3.80263,25.5496c1.90132,9.539 2.66147,19.758 1.52124,22.484c-0.76109,2.725 -2.66147,12.604 -3.80263,22.143c-1.14117,9.198 -3.80263,25.549 -5.70395,35.769c-8.36542,43.945 -10.26674,70.517 -6.08403,79.034c2.28139,4.087 -2.28139,8.857 -18.25114,19.417c-26.23733,17.374 -54.3756,31 -63.88172,31c-3.80245,0 -12.92839,2.385 -20.15312,4.77c-20.53329,7.835 -18.25181,17.714 9.50621,40.538c34.60237,28.616 62.36038,33.045 100.38503,16.352c20.1534,-8.857 23.19494,-9.198 32.32145,-5.11c12.16711,5.792 34.6019,6.132 48.67127,0.682c5.70395,-2.385 18.25208,-9.88 27.37765,-17.033c19.77238,-15.33 31.56036,-18.737 44.48856,-13.286c11.4079,4.428 17.49193,0.34 28.89889,-19.418c11.78798,-20.44 12.9282,-43.945 3.04249,-64.385c-10.26674,-21.802 -28.13874,-33.385 -58.55888,-38.154c-12.54813,-2.044 -23.19494,-4.429 -24.33517,-5.451c-6.84418,-6.132 -9.50659,-107.649 -3.04249,-116.847c1.52124,-2.3842 9.12651,-1.703 20.91355,1.022c10.26674,2.385 20.53347,3.407 22.81487,2.044c2.28139,-1.362 -7.98534,-5.4502 -22.81487,-8.8568c-14.82952,-3.7473 -28.51788,-8.5166 -30.79927,-10.9012c-5.32388,-6.1319 -1.52124,-5.7912 32.32051,3.7473c20.1534,5.4506 28.13874,6.8132 25.47633,3.4066c-4.94286,-5.1099 -1.90132,-11.5825 5.70395,-11.5825c3.04154,0 6.08403,-1.3626 7.22425,-2.7253c1.14117,-1.7033 -7.22425,-2.3846 -18.63121,-1.3626c-11.4079,0.6813 -26.99758,0.3406 -34.98292,-1.3627c-12.54813,-2.7253 -9.50659,-3.0659 21.6737,-4.7692c33.46168,-1.7033 36.12314,-2.7253 17.49193,-8.1759c-5.70395,-1.7033 -6.08403,-3.066 -2.28234,-7.1539c6.08403,-6.8132 1.52124,-6.4726 -24.71524,1.7033c-24.33611,7.4946 -28.51882,8.1759 -28.51882,4.088c0,-1.7034 13.30828,-6.8133 29.65904,-11.5825c23.57502,-7.4946 26.99758,-9.1979 16.73084,-9.1979c-6.84418,-0.3407 -18.25208,1.7033 -25.47633,4.4286c-12.54813,4.7693 -12.9282,4.7693 -30.03912,-10.5605c-9.88666,-8.5165 -20.91355,-19.7584 -25.47728,-25.20896c-9.50564,-12.26381 -13.30828,-12.26381 -20.15246,-0.68132zm14.44945,8.51658c-1.52124,4.0879 3.42162,9.5385 17.11091,18.3957c20.1534,12.9451 26.6175,24.8683 11.02689,19.7583c-11.78704,-3.4066 -52.09383,-3.7472 -62.74065,-0.3406c-15.58967,5.1099 -9.88666,-7.1539 8.36542,-18.7364c12.9282,-8.1759 17.11091,-12.9451 17.11091,-19.7584c0,-5.1099 1.14117,-10.21981 2.66241,-11.24179c3.80169,-3.74728 8.74549,5.45059 6.4641,11.92319zm6.08403,45.3079c8.36542,8.8572 3.04154,17.0331 -11.4079,17.0331c-13.68835,0 -18.63216,-6.1319 -13.68835,-17.3737c2.66147,-6.1319 19.01223,-6.1319 25.09626,0.3406zm32.32051,8.5166c0,2.7253 -3.80263,5.4506 -8.36542,6.1319c-6.84418,1.022 -8.74549,-0.6813 -8.74549,-6.1319c0,-5.4506 1.90132,-7.1539 8.74549,-6.1319c4.56278,0.6813 8.36542,3.4066 8.36542,6.1319zm-4.94286,19.077c3.04154,1.7033 4.56278,38.8354 1.90132,38.8354c-0.76109,0 -7.22519,-2.385 -14.06937,-5.451c-8.74549,-4.087 -17.87201,-5.109 -32.32145,-3.747l-20.15246,1.703l-2.28139,-12.263c-4.9438,-26.9126 -6.08403,-25.8906 30.79927,-23.1653c18.25208,1.3626 34.60285,3.4066 36.12409,4.0879zm-3.42256,41.9014c4.18271,3.747 4.56278,6.813 7.98534,58.934l2.66147,36.111l-21.6737,8.857c-11.78798,4.769 -31.56036,14.308 -44.10849,21.121c-12.16805,6.813 -23.57596,11.242 -25.09626,10.22c-3.80263,-3.748 17.87106,-135.924 23.19494,-139.331c5.70395,-3.407 52.09383,-0.341 57.03669,4.088zm56.65662,102.539c19.39231,4.769 35.74307,18.055 41.44702,33.044c5.32388,14.989 5.32388,37.132 -0.38007,50.759l-4.56278,9.879l-4.9438,-10.901c-9.88572,-20.44 -42.20717,-27.253 -72.24629,-14.989c-8.36542,3.406 -32.32145,20.099 -53.235,37.132c-20.91355,17.033 -43.72841,33.725 -50.95267,36.791c-19.77332,8.517 -47.15069,7.154 -65.02232,-3.406c-14.06909,-8.517 -45.62956,-35.429 -45.62956,-39.517c0,-1.022 7.98517,-2.044 17.87155,-2.385c22.05434,-1.022 47.91112,-12.264 86.6963,-37.813c53.99515,-35.088 78.33032,-49.055 98.48372,-55.528c22.43479,-7.154 33.0816,-7.835 52.47391,-3.066zm23.19494,78.693c6.84512,7.835 8.74549,28.615 2.66241,32.022c-1.90132,1.022 -3.80263,-0.341 -3.80263,-3.407c0,-7.153 -14.82952,-11.582 -26.6175,-7.835c-5.32388,1.363 -19.39231,10.561 -31.56036,19.759c-20.91355,16.011 -23.57502,17.033 -43.72841,17.033c-34.98292,0 -34.60285,-3.066 3.42256,-28.616c49.8115,-33.385 63.5008,-40.198 79.47148,-38.154c7.22425,1.022 16.34982,5.11 20.15246,9.198z"/>
 </g>
</svg>