<svg width="32" height="32" viewBox="0 0 334 391" fill="none" xmlns="http://www.w3.org/2000/svg">
<path d="M168.061 8.60352C164.835 14.0541 154.756 24.2739 145.886 31.7685C136.613 38.9224 129.355 47.0983 129.355 49.1422C129.355 51.5269 133.79 56.2961 139.435 60.0434C151.53 67.8786 151.934 73.3292 141.854 84.2304C135.806 90.7029 135.403 95.1315 137.822 109.78C139.838 119.319 140.644 129.538 139.435 132.264C138.628 134.989 136.613 144.868 135.403 154.407C134.193 163.605 131.371 179.956 129.355 190.176C120.485 234.121 118.469 260.693 122.904 269.21C125.323 273.297 120.485 278.067 103.552 288.627C75.7321 306.001 45.8966 319.627 35.8171 319.627C31.7853 319.627 22.1089 322.012 14.4484 324.397C-7.3234 332.232 -4.90431 342.111 24.528 364.935C61.2175 393.551 90.6498 397.98 130.968 381.287C152.337 372.43 155.562 372.089 165.239 376.177C178.14 381.969 201.928 382.309 216.846 376.859C222.894 374.474 236.199 366.979 245.875 359.826C266.84 344.496 279.339 341.089 293.047 346.54C305.143 350.968 311.594 346.88 323.689 327.122C336.188 306.682 337.397 283.177 326.915 262.737C316.029 240.935 297.079 229.352 264.824 224.583C251.519 222.539 240.23 220.154 239.021 219.132C231.764 213 228.941 111.483 235.795 102.285C237.408 99.9008 245.472 100.582 257.97 103.307C268.856 105.692 279.742 106.714 282.161 105.351C284.58 103.989 273.694 99.9008 257.97 96.4942C242.246 92.7469 227.732 87.9776 225.313 85.593C219.668 79.4611 223.7 79.8018 259.583 89.3403C280.952 94.7909 289.419 96.1535 286.596 92.7469C281.355 87.637 284.58 81.1644 292.644 81.1644C295.869 81.1644 299.095 79.8018 300.304 78.4391C301.514 76.7358 292.644 76.0545 280.549 77.0765C268.453 77.7578 251.923 77.4171 243.456 75.7138C230.151 72.9885 233.376 72.6479 266.437 70.9446C301.917 69.2413 304.739 68.2193 284.984 62.7687C278.936 61.0654 278.533 59.7027 282.564 55.6148C289.015 48.8016 284.177 49.1422 256.358 57.3181C230.554 64.8127 226.119 65.494 226.119 61.4061C226.119 59.7027 240.23 54.5928 257.567 49.8236C282.564 42.329 286.193 40.6257 275.307 40.6257C268.05 40.285 255.954 42.329 248.294 45.0543C234.989 49.8236 234.586 49.8236 216.443 34.4938C205.96 25.9773 194.268 14.7354 189.429 9.28484C179.35 -2.97897 175.318 -2.97897 168.061 8.60352ZM183.382 17.1201C181.769 21.208 187.01 26.6586 201.525 35.5158C222.894 48.4609 229.748 60.3841 213.217 55.2741C200.719 51.8675 157.981 51.5269 146.692 54.9335C130.162 60.0434 136.209 47.7796 155.562 36.1971C169.27 28.0212 173.705 23.252 173.705 16.4387C173.705 11.3288 174.915 6.21889 176.528 5.19691C180.559 1.44963 185.801 10.6475 183.382 17.1201ZM189.833 62.428C198.703 71.2852 193.058 79.4611 177.737 79.4611C163.223 79.4611 157.981 73.3292 163.223 62.0874C166.045 55.9555 183.382 55.9555 189.833 62.428ZM224.103 70.9446C224.103 73.6699 220.071 76.3952 215.233 77.0765C207.976 78.0985 205.96 76.3952 205.96 70.9446C205.96 65.494 207.976 63.7907 215.233 64.8127C220.071 65.494 224.103 68.2193 224.103 70.9446ZM218.862 90.0216C222.087 91.7249 223.7 128.857 220.878 128.857C220.071 128.857 213.217 126.472 205.96 123.406C196.687 119.319 187.01 118.297 171.689 119.659L150.321 121.362L147.902 109.099C142.66 82.1864 141.451 83.2084 180.559 85.9337C199.912 87.2963 217.249 89.3403 218.862 90.0216ZM215.233 131.923C219.668 135.67 220.071 138.736 223.7 190.857L226.522 226.968L203.541 235.825C191.042 240.594 170.077 250.133 156.772 256.946C143.87 263.759 131.774 268.188 130.162 267.166C126.13 263.418 149.111 131.242 154.756 127.835C160.804 124.428 209.992 127.494 215.233 131.923ZM275.307 234.462C295.869 239.231 313.206 252.517 319.254 267.506C324.899 282.495 324.899 304.638 318.851 318.265L314.013 328.144L308.771 317.243C298.289 296.803 264.018 289.99 232.167 302.254C223.297 305.66 197.896 322.353 175.721 339.386C153.546 356.419 129.355 373.111 121.695 376.177C100.729 384.694 71.7003 383.331 52.7507 372.771C37.833 364.254 4.36888 337.342 4.36888 333.254C4.36888 332.232 12.8357 331.21 23.3184 330.869C46.703 329.847 74.1194 318.605 115.244 293.056C172.496 257.968 198.299 244.001 219.668 237.528C243.456 230.374 254.745 229.693 275.307 234.462ZM299.901 313.155C307.159 320.99 309.174 341.77 302.724 345.177C300.708 346.199 298.692 344.836 298.692 341.77C298.692 334.617 282.968 330.188 270.469 333.935C264.824 335.298 249.907 344.496 237.005 353.694C214.83 369.705 212.008 370.727 190.639 370.727C153.546 370.727 153.949 367.661 194.268 342.111C247.084 308.726 261.599 301.913 278.533 303.957C286.193 304.979 295.869 309.067 299.901 313.155Z" fill="black"/>
</svg>
